<svg id="eIbcpro36xf1" xmlns="http://www.w3.org/2000/svg" xmlns:xlink="http://www.w3.org/1999/xlink" viewBox="0 0 168 43" shape-rendering="geometricPrecision" text-rendering="geometricPrecision" project-id="4c0b17d04c534ef985b88445c06665f7" export-id="e4a297cdecf84329b28db94fad6b0bea" cached="false"><path d="M8.63281,8l7.23389,6.1803c.4295.3669.6771.9053.6771,1.4724v4.6577L9.30979,14.1302c-.42946-.3669-.67698-.9054-.67698-1.4725v-4.6577Z" fill="#f97a00"/><path d="M8.63281,35.9999l7.23389-6.1803c.4295-.3669.6771-.9053.6771-1.4724v-4.6577L9.30979,29.8697c-.42946.3669-.67698.9053-.67698,1.4724v4.6578Z" fill="#f97a00"/><path d="M0,14.5166l7.13558,6.0622c.34594.2939.784.4551,1.2367.4551h5.75452L7.00881,14.9731c-.3462-.2947-.78494-.4565-1.23835-.4565h-5.77046Z" fill="#f97a00"/><path d="M0,29.4822l7.09169-6.0587c.34657-.2961.78624-.4587,1.24076-.4587h5.81155L7.00839,29.027c-.34597.2939-.78405.4552-1.23673.4552h-5.77166Z" fill="#f97a00"/><path d="M26.3719,8l-7.234,6.1803c-.4294.3669-.677.9053-.677,1.4724v4.6577l7.234-6.1802c.4294-.3669.677-.9054.677-1.4725v-4.6577Z" fill="#f97a00"/><path d="M26.3719,35.9999l-7.234-6.1803c-.4294-.3669-.677-.9053-.677-1.4724v-4.6577l7.234,6.1802c.4294.3669.677.9053.677,1.4724v4.6578Z" fill="#f97a00"/><path d="M35.0019,14.5166l-7.1356,6.0622c-.3459.2939-.7841.4551-1.2367.4551h-5.7546l7.1181-6.0608c.3461-.2947.7849-.4565,1.2383-.4565h5.7705Z" fill="#f97a00"/><path d="M34.9994,29.4822l-7.0917-6.0587c-.3465-.2961-.7863-.4587-1.2408-.4587h-5.8114L27.991,29.027c.346.2939.784.4552,1.2367.4552h5.7717Z" fill="#f97a00"/><text dx="0" dy="0" font-family="&quot;Arial&quot;" font-size="28" font-weight="400" transform="matrix(.584507 0 0 0.770603 12.489262 64.194177)" fill="#333"><![CDATA[
 
]]></text><text dx="0" dy="0" font-family="&quot;Arial&quot;" font-size="28" font-weight="400" transform="translate(44.227 20.953)" fill="#333"><![CDATA[
 
]]></text><text dx="0" dy="0" font-family="&quot;Arial&quot;" font-size="28" font-weight="400" transform="translate(39.313 31.394)" fill="#f97a00"><tspan y="0" font-weight="400"><![CDATA[
Quick Ai
]]></tspan></text></svg>
