<svg id="eqwiK0ndMYo1" xmlns="http://www.w3.org/2000/svg" xmlns:xlink="http://www.w3.org/1999/xlink" viewBox="0 0 35 28" shape-rendering="geometricPrecision" text-rendering="geometricPrecision" project-id="3073bf7464ab4721a8de8f124d5c21a0" export-id="2ed50afe123a465aa744e595530a7d2b" cached="false"><path d="M8.63281,0L15.8667,6.18025c.4295.36691.6771.90534.6771,1.47241v4.65774L9.30979,6.13018c-.42946-.36691-.67698-.90534-.67698-1.47245v-4.65773Z" fill="#f97a00"/><path d="M8.63281,27.9999l7.23389-6.1803c.4295-.3669.6771-.9053.6771-1.4724v-4.6577L9.30979,21.8697c-.42946.3669-.67698.9053-.67698,1.4724v4.6578Z" fill="#f97a00"/><path d="M0,6.5166l7.13558,6.0622c.34594.2939.784.4551,1.2367.4551h5.75452L7.00881,6.97314c-.3462-.29479-.78494-.45654-1.23835-.45654L0,6.5166Z" fill="#f97a00"/><path d="M0,21.4822l7.09169-6.0587c.34657-.2961.78624-.4587,1.24076-.4587h5.81155L7.00839,21.027c-.34597.2939-.78405.4552-1.23673.4552h-5.77166Z" fill="#f97a00"/><path d="M26.3719,0l-7.234,6.18025c-.4294.36691-.677.90534-.677,1.47241v4.65774l7.234-6.18022c.4294-.36691.677-.90534.677-1.47245v-4.65773Z" fill="#f97a00"/><path d="M26.3719,27.9999l-7.234-6.1803c-.4294-.3669-.677-.9053-.677-1.4724v-4.6577l7.234,6.1802c.4294.3669.677.9053.677,1.4724v4.6578Z" fill="#f97a00"/><path d="M35.0019,6.5166l-7.1356,6.0622c-.3459.2939-.7841.4551-1.2367.4551h-5.7546l7.1181-6.06076c.3461-.29479.7849-.45654,1.2383-.45654h5.7705Z" fill="#f97a00"/><path d="M34.9994,21.4822l-7.0917-6.0587c-.3465-.2961-.7863-.4587-1.2408-.4587h-5.8114L27.991,21.027c.346.2939.784.4552,1.2367.4552h5.7717Z" fill="#f97a00"/></svg>
